<svg id="Layer_2" data-name="Layer 2" xmlns="http://www.w3.org/2000/svg" viewBox="0 0 81 89"><defs><style>.cls-1{fill:#00993e;}.cls-2{fill:#00c659;}</style></defs><title>зеллот1</title><path class="cls-1" d="M753.47,457H709a10.73,10.73,0,0,1-10.2-7.39l-2.29-7a4.29,4.29,0,0,1,4.08-5.63h61.26a4.29,4.29,0,0,1,4.08,5.63l-2.29,7A10.73,10.73,0,0,1,753.47,457Z" transform="translate(-690.75 -368)"/><rect class="cls-1" x="5" y="5" width="71" height="71" rx="14.77" ry="14.77"/><path class="cls-2" d="M755.49,449H707a16.26,16.26,0,0,1-16.26-16.26V384.26A16.26,16.26,0,0,1,707,368h48.48a16.26,16.26,0,0,1,16.26,16.26v48.48A16.26,16.26,0,0,1,755.49,449ZM707,378a6.26,6.26,0,0,0-6.26,6.26v48.48A6.26,6.26,0,0,0,707,439h48.48a6.26,6.26,0,0,0,6.26-6.26V384.26a6.26,6.26,0,0,0-6.26-6.26Z" transform="translate(-690.75 -368)"/></svg>