<svg id="Layer_1" data-name="Layer 1" xmlns="http://www.w3.org/2000/svg" viewBox="0 0 81 89"><defs><style>.cls-1{fill:#c94d31;}.cls-2{fill:#ff653a;}</style></defs><title>крлот</title><path class="cls-1" d="M706.47,465H662a10.73,10.73,0,0,1-10.2-7.39l-2.29-7a4.29,4.29,0,0,1,4.08-5.63h61.26a4.29,4.29,0,0,1,4.08,5.63l-2.29,7A10.73,10.73,0,0,1,706.47,465Z" transform="translate(-643.75 -376)"/><rect class="cls-1" x="5" y="5" width="71" height="71" rx="14.77" ry="14.77"/><path class="cls-2" d="M708.49,457H660a16.26,16.26,0,0,1-16.26-16.26V392.26A16.26,16.26,0,0,1,660,376h48.48a16.26,16.26,0,0,1,16.26,16.26v48.48A16.26,16.26,0,0,1,708.49,457ZM660,386a6.26,6.26,0,0,0-6.26,6.26v48.48A6.26,6.26,0,0,0,660,447h48.48a6.26,6.26,0,0,0,6.26-6.26V392.26a6.26,6.26,0,0,0-6.26-6.26Z" transform="translate(-643.75 -376)"/></svg>