<svg id="Layer_2" data-name="Layer 2" xmlns="http://www.w3.org/2000/svg" viewBox="0 0 103.69 128.51"><defs><style>.cls-1{fill:#d1778a;}.cls-2{fill:none;stroke:#e8e82e;stroke-miterlimit:10;stroke-width:3px;}.cls-3{fill:#e8e82e;}.cls-4{fill:#f1fc86;}.cls-5{fill:#c1b929;}.cls-6{fill:#fff;}.cls-7{fill:#00c659;}</style></defs><title>желкот1</title><circle class="cls-1" cx="49.91" cy="54.32" r="2.7"/><line class="cls-2" x1="20.63" y1="56.44" x2="0.19" y2="53.84"/><line class="cls-2" x1="22.46" y1="60.78" x2="4.91" y2="60.78"/><line class="cls-2" x1="77.84" y1="54.26" x2="98.25" y2="51.41"/><line class="cls-2" x1="75.5" y1="58.61" x2="93.04" y2="58.39"/><path class="cls-3" d="M779.24,413.87l-.54-.05c-5.89-.57-12-1.15-16.25,6.09-1.84,3.12-3.34,7.67-4.83,15.17l-4.35-15a6.58,6.58,0,0,0-.53-1.49,6.26,6.26,0,0,0-1.42-1.85A43.19,43.19,0,0,1,728.73,423v0a43.09,43.09,0,0,1-21.53-6.51h0a6.25,6.25,0,0,0-2,3.32l-7.84,33.09a14.43,14.43,0,0,0,2.24,11.7c4.11,5.81,12.9,12.38,29.68,12.38v0a39.77,39.77,0,0,0,28.39-11.18,22.48,22.48,0,0,0,6.42-12.24c1.6-9,4.28-25.95,6.1-29,1.21-2.05,1.71-2.27,7.64-1.7l.74.07a4.5,4.5,0,0,0,4.92-4.5A4.63,4.63,0,0,0,779.24,413.87Z" transform="translate(-679.81 -348.47)"/><path class="cls-4" d="M729.71,414.91l-18.37,0a6.27,6.27,0,0,0-4.14,1.57A43.23,43.23,0,0,0,729.71,423" transform="translate(-679.81 -348.47)"/><path class="cls-5" d="M706.27,418c.65,5.39,15.49,17.54,27.64,17.54s18.89-10.8,18.22-17.54S705.63,412.55,706.27,418Z" transform="translate(-679.81 -348.47)"/><path class="cls-3" d="M766.61,394.48a18.42,18.42,0,0,1-.88,5.39,25.13,25.13,0,0,1-3.8,7.37,36.39,36.39,0,0,1-9.74,9l-.87.54A43.19,43.19,0,0,1,728.73,423v0a43.09,43.09,0,0,1-21.53-6.51l-.3-.19a36.4,36.4,0,0,1-10.17-9.47,25.18,25.18,0,0,1-3.71-7.42,18.41,18.41,0,0,1-.8-5.4c0-.48,0-1,.08-1.45.06-5,1.34-42.78,8.9-44,6.88-1.15,16.08,16.22,18.87,21.46a53,53,0,0,1,9.39-.92v0a53.47,53.47,0,0,1,9.62,1.05c2.87-5.2,13.5-22.42,20.37-21.18,7.54,1.37,7.11,39.12,7.1,44.14C766.59,393.52,766.61,394,766.61,394.48Z" transform="translate(-679.81 -348.47)"/><path class="cls-6" d="M697.93,391.31c0,4.85,7.77,10.12,14.85,10.12s14.84-6.62,14.84-11.47-7.76-11.47-14.84-11.47a10.2,10.2,0,0,0-1.34.1l-12.64,9.59A7.28,7.28,0,0,0,697.93,391.31Zm14.93-9.75a8.5,8.5,0,1,1-8.49,8.49A8.5,8.5,0,0,1,712.86,381.56Z" transform="translate(-679.81 -348.47)"/><path class="cls-6" d="M698.8,388.18l12.64-9.59C706.36,379.33,700.88,384,698.8,388.18Z" transform="translate(-679.81 -348.47)"/><path d="M712.86,398.55a8.5,8.5,0,1,0-8.49-8.5A8.51,8.51,0,0,0,712.86,398.55ZM717,386.48a1.81,1.81,0,1,1-1.81,1.81A1.81,1.81,0,0,1,717,386.48Z" transform="translate(-679.81 -348.47)"/><circle class="cls-6" cx="37.23" cy="39.82" r="1.81"/><path class="cls-4" d="M706.9,416.3l.3.19-.32.3v-.05A1.08,1.08,0,0,1,706.9,416.3Z" transform="translate(-679.81 -348.47)"/><path class="cls-6" d="M760.11,388.56,747.6,378.8a10.26,10.26,0,0,0-1.34-.12c-7.08-.09-14.93,6.43-15,11.27s7.61,11.58,14.69,11.67,14.92-5.07,15-9.92A7.23,7.23,0,0,0,760.11,388.56Zm-5.59,1.8a8.5,8.5,0,1,1-8.38-8.61A8.5,8.5,0,0,1,754.52,390.36Z" transform="translate(-679.81 -348.47)"/><path class="cls-6" d="M760.11,388.56,747.6,378.8C752.67,379.61,758.09,384.37,760.11,388.56Z" transform="translate(-679.81 -348.47)"/><path d="M754.52,390.36a8.5,8.5,0,1,0-8.61,8.38A8.5,8.5,0,0,0,754.52,390.36Zm-10.84-1.91a1.81,1.81,0,0,1-3.62-.05,1.81,1.81,0,1,1,3.62.05Z" transform="translate(-679.81 -348.47)"/><circle class="cls-6" cx="62.06" cy="39.96" r="1.81"/><circle class="cls-7" cx="49.91" cy="54.32" r="2.7"/></svg>